<svg width="239.907043" height="24.000000" viewBox="0 0 239.907 24" fill="none" xmlns="http://www.w3.org/2000/svg" xmlns:xlink="http://www.w3.org/1999/xlink">
	<desc>
			Created with Pixso.
	</desc>
	<defs/>
	<path id="Union" d="M34.3798 4L18.1926 11.7817L2.07715 4L0 6.10913L12.5343 20L18.1926 14.2546L23.9226 20L36.4568 6.10913L34.3798 4ZM45.9366 18.5669L45.9366 8.44482L48.6313 8.44482L48.6313 9.49756C49.3899 9.07251 50.1084 8.74854 50.7871 8.54614C51.4657 8.34375 52.1244 8.24243 52.7233 8.24243C52.9229 8.24243 53.1425 8.2627 53.3619 8.30322C53.4011 8.31104 53.441 8.31909 53.4818 8.32715C53.6486 8.36035 53.8281 8.396 54.0208 8.44482L54.0208 10.9348C53.9346 10.9099 53.8333 10.8926 53.7216 10.8735C53.652 10.8618 53.5784 10.8491 53.5017 10.8337C53.3021 10.7932 53.0825 10.7729 52.863 10.7729C52.1843 10.7729 51.5256 10.8945 50.8868 11.0969C50.2482 11.2993 49.5295 11.6436 48.7312 12.0889L48.7312 18.5669L45.9366 18.5669ZM63.6056 18.5669L63.6056 16.6438L63.5059 16.6438C63.1066 17.3928 62.5676 17.9395 61.889 18.2634C61.2103 18.6074 60.3521 18.7695 59.3141 18.7695C58.5557 18.7695 57.877 18.6479 57.2383 18.405C56.5995 18.1621 56.0406 17.8179 55.5815 17.3726C55.1224 16.9272 54.7632 16.4009 54.5037 15.7732C54.2441 15.166 54.1244 14.4778 54.1244 13.7085C54.1244 12.8987 54.2242 12.1699 54.4437 11.5017C54.6433 10.8337 54.9827 10.2466 55.4418 9.76074C55.881 9.2749 56.4597 8.9104 57.1584 8.64722C57.837 8.38403 58.6554 8.24243 59.6135 8.24243C60.2124 8.24243 60.8112 8.32349 61.4299 8.44482C62.0487 8.58667 62.7473 8.78906 63.5059 9.05225L63.5059 4.59839L66.3003 4.59839L66.3003 18.5669L63.6056 18.5669ZM63.5059 13.1011L63.5059 11.6838C62.9868 11.4209 62.4479 11.198 61.869 11.0361C61.2902 10.8743 60.7113 10.7729 60.1125 10.7729C59.0347 10.7729 58.2562 10.9956 57.7572 11.4409C57.2582 11.8865 57.0187 12.5747 57.0187 13.5059C57.0187 13.9312 57.0586 14.3157 57.1783 14.6396C57.2782 14.9839 57.4578 15.2671 57.6973 15.51C57.9369 15.7529 58.2562 15.9353 58.6554 16.0566C59.0547 16.1782 59.5736 16.239 60.1725 16.239C61.2303 16.239 62.0487 15.9758 62.6276 15.4292C63.2064 14.8826 63.5059 14.1133 63.5059 13.1011ZM78.3733 15.4292L78.3733 18.0608C77.8145 18.3037 77.1556 18.4658 76.3972 18.5872C75.6387 18.7087 74.8802 18.7695 74.0818 18.7695C73.1038 18.7695 72.2454 18.6479 71.4869 18.3848C70.7284 18.1418 70.0897 17.7776 69.5707 17.3118C69.0518 16.8665 68.6525 16.2996 68.3931 15.6519C68.1135 15.0039 67.9938 14.2954 67.9938 13.5059C67.9938 12.7366 68.1135 12.0078 68.3931 11.3601C68.6525 10.7122 69.0518 10.1655 69.5707 9.69995C70.0897 9.25464 70.7284 8.89014 71.4869 8.62695C72.2454 8.38403 73.1038 8.24243 74.0818 8.24243C74.8802 8.24243 75.6387 8.30322 76.3972 8.42456C77.1556 8.54614 77.8145 8.72827 78.3733 8.95093L78.3733 11.5828C77.6547 11.2791 76.9761 11.0767 76.2974 10.9551C75.6188 10.8337 74.9601 10.7729 74.3612 10.7729C73.1437 10.7729 72.2654 11.0159 71.7064 11.5017C71.1476 11.9875 70.8881 12.6558 70.8881 13.5059C70.8881 14.3765 71.1476 15.0444 71.7064 15.5303C72.2654 16.0161 73.1437 16.239 74.3612 16.239C74.9601 16.239 75.6188 16.1985 76.2974 16.0769C76.9761 15.9556 77.6547 15.7529 78.3733 15.4292ZM82.8566 18.5669L80.0621 18.5669L80.0621 4.59839L82.8566 4.59839L82.8566 18.5669ZM84.9431 18.5669L84.9431 8.44482L87.6378 8.44482L87.6378 9.49756C88.3962 9.07251 89.1149 8.74854 89.7935 8.54614C90.4722 8.34375 91.1309 8.24243 91.7296 8.24243C91.9293 8.24243 92.1488 8.2627 92.3684 8.30322C92.4076 8.31104 92.4475 8.31909 92.4883 8.32715C92.6549 8.36035 92.8346 8.396 93.0271 8.44482L93.0271 10.9348C92.941 10.9099 92.8397 10.8926 92.728 10.8735C92.6583 10.8618 92.5847 10.8491 92.5082 10.8337C92.3085 10.7932 92.089 10.7729 91.8694 10.7729C91.1907 10.7729 90.532 10.8945 89.8933 11.0969C89.2546 11.2993 88.536 11.6436 87.7375 12.0889L87.7375 18.5669L84.9431 18.5669ZM92.3813 18.3442C92.062 18.0608 91.9222 17.6965 91.9222 17.2107C91.9222 16.7654 92.062 16.3806 92.3813 16.0972C92.6808 15.8137 93.1 15.6721 93.6189 15.6721C94.1379 15.6721 94.5371 15.8137 94.8564 16.0972C95.1559 16.3806 95.3156 16.7654 95.3156 17.2107C95.3156 17.6965 95.1559 18.0608 94.8564 18.3442C94.5371 18.6277 94.1379 18.7695 93.6189 18.7695C93.1 18.7695 92.6808 18.6277 92.3813 18.3442ZM96.7128 18.0608L96.7128 15.5303C97.4314 15.8745 98.2098 16.0972 99.0082 16.1985C99.8066 16.2996 100.645 16.3401 101.503 16.3401C102.142 16.3401 102.621 16.2996 102.94 16.1782C103.24 16.0769 103.4 15.8948 103.4 15.6113C103.4 15.49 103.32 15.3887 103.2 15.3076C103.08 15.2268 102.921 15.1458 102.741 15.085C102.541 15.0242 102.342 14.9636 102.122 14.9231C101.962 14.8936 101.812 14.853 101.681 14.8179C101.632 14.8047 101.586 14.7922 101.543 14.7812L99.8466 14.3562C99.2478 14.2146 98.7488 14.0322 98.3495 13.8096C97.9304 13.6072 97.5911 13.3643 97.3315 13.1011C97.072 12.8379 96.8925 12.5544 96.7727 12.2305C96.653 11.927 96.613 11.603 96.613 11.2791C96.613 10.9348 96.6927 10.5706 96.8724 10.2061C97.0521 9.8418 97.3315 9.51782 97.6908 9.23438C98.0502 8.95093 98.5292 8.70801 99.0881 8.52588C99.647 8.34375 100.326 8.24243 101.104 8.24243C102.002 8.24243 102.841 8.30322 103.599 8.42456C104.358 8.54614 105.036 8.72827 105.595 8.95093L105.595 11.4814C104.877 11.1777 104.178 10.9753 103.499 10.854C102.821 10.7324 102.122 10.6716 101.404 10.6716C100.805 10.6716 100.346 10.7324 100.026 10.8337C99.7068 10.9551 99.5471 11.1375 99.5471 11.4006C99.5471 11.522 99.6071 11.6233 99.7268 11.7041C99.8466 11.7852 100.006 11.8662 100.206 11.927C100.385 11.9875 100.585 12.0483 100.805 12.0889L101.404 12.2102L103.06 12.6152C103.659 12.7771 104.158 12.9592 104.577 13.1619C104.976 13.3845 105.316 13.6274 105.575 13.8906C105.815 14.1538 105.994 14.4373 106.114 14.761C106.234 15.085 106.294 15.4089 106.294 15.7329C106.294 16.0566 106.214 16.4009 106.054 16.7654C105.895 17.1296 105.615 17.4536 105.256 17.7371C104.877 18.0408 104.398 18.2837 103.799 18.4861C103.2 18.6885 102.481 18.7695 101.603 18.7695C100.605 18.7695 99.6669 18.729 98.8286 18.6074C97.9703 18.5063 97.2717 18.324 96.7128 18.0608ZM117.585 15.4292L117.585 18.0608C117.026 18.3037 116.367 18.4658 115.609 18.5872C114.85 18.7087 114.092 18.7695 113.293 18.7695C112.315 18.7695 111.457 18.6479 110.698 18.3848C109.94 18.1418 109.301 17.7776 108.782 17.3118C108.263 16.8665 107.864 16.2996 107.604 15.6519C107.325 15.0039 107.205 14.2954 107.205 13.5059C107.205 12.7366 107.325 12.0078 107.604 11.3601C107.864 10.7122 108.263 10.1655 108.782 9.69995C109.301 9.25464 109.94 8.89014 110.698 8.62695C111.457 8.38403 112.315 8.24243 113.293 8.24243C114.092 8.24243 114.85 8.30322 115.609 8.42456C116.367 8.54614 117.026 8.72827 117.585 8.95093L117.585 11.5828C116.866 11.2791 116.188 11.0767 115.509 10.9551C114.83 10.8337 114.172 10.7729 113.573 10.7729C112.355 10.7729 111.477 11.0159 110.918 11.5017C110.359 11.9875 110.1 12.6558 110.1 13.5059C110.1 14.3765 110.359 15.0444 110.918 15.5303C111.477 16.0161 112.355 16.239 113.573 16.239C114.172 16.239 114.83 16.1985 115.509 16.0769C116.188 15.9556 116.866 15.7529 117.585 15.4292ZM122.068 18.5669L119.274 18.5669L119.274 4.59839L122.068 4.59839L122.068 9.25464C122.567 9.05225 123.006 8.89014 123.405 8.7688C123.785 8.64722 124.144 8.54614 124.463 8.46509C124.783 8.38403 125.062 8.34375 125.342 8.30322C125.621 8.2627 125.901 8.24243 126.2 8.24243C126.839 8.24243 127.417 8.34375 127.937 8.52588C128.455 8.70801 128.915 8.97119 129.294 9.29517C129.653 9.63916 129.953 10.0442 130.152 10.5098C130.352 10.9956 130.452 11.522 130.452 12.0889L130.452 18.5669L127.657 18.5669L127.657 13.1011C127.657 12.3723 127.457 11.8054 127.058 11.4006C126.659 10.9956 126.1 10.7729 125.381 10.7729C125.022 10.7729 124.563 10.8743 123.984 11.0564C123.385 11.2588 122.747 11.522 122.068 11.8865L122.068 18.5669ZM132.361 15.6924C132.082 15.0444 131.942 14.3157 131.942 13.5059C131.942 12.696 132.082 11.9673 132.361 11.3196C132.641 10.6716 133.04 10.1252 133.559 9.65942C134.078 9.21411 134.717 8.84985 135.475 8.60693C136.234 8.36377 137.072 8.24243 138.03 8.24243C138.968 8.24243 139.807 8.36377 140.565 8.60693C141.324 8.84985 141.962 9.21411 142.481 9.65942C143 10.1252 143.42 10.6716 143.699 11.3196C143.979 11.9673 144.118 12.696 144.118 13.5059C144.118 14.3157 143.979 15.0444 143.699 15.6924C143.42 16.3401 143 16.907 142.481 17.3523C141.962 17.8179 141.324 18.1621 140.565 18.405C139.807 18.6479 138.968 18.7695 138.03 18.7695C137.072 18.7695 136.234 18.6479 135.475 18.405C134.717 18.1621 134.078 17.8179 133.559 17.3523C133.04 16.907 132.641 16.3401 132.361 15.6924ZM138.03 10.7729C135.894 10.7729 134.837 11.6838 134.837 13.5059C134.837 15.3279 135.894 16.239 138.03 16.239C140.146 16.239 141.224 15.3279 141.224 13.5059C141.224 11.6838 140.146 10.7729 138.03 10.7729ZM145.744 15.6924C145.464 15.0444 145.324 14.3157 145.324 13.5059C145.324 12.696 145.464 11.9673 145.744 11.3196C146.023 10.6716 146.422 10.1252 146.941 9.65942C147.46 9.21411 148.099 8.84985 148.857 8.60693C149.616 8.36377 150.454 8.24243 151.412 8.24243C152.35 8.24243 153.189 8.36377 153.947 8.60693C154.706 8.84985 155.345 9.21411 155.864 9.65942C156.383 10.1252 156.802 10.6716 157.081 11.3196C157.361 11.9673 157.5 12.696 157.5 13.5059C157.5 14.3157 157.361 15.0444 157.081 15.6924C156.802 16.3401 156.383 16.907 155.864 17.3523C155.345 17.8179 154.706 18.1621 153.947 18.405C153.189 18.6479 152.35 18.7695 151.412 18.7695C150.454 18.7695 149.616 18.6479 148.857 18.405C148.099 18.1621 147.46 17.8179 146.941 17.3523C146.422 16.907 146.023 16.3401 145.744 15.6924ZM151.412 10.7729C149.277 10.7729 148.219 11.6838 148.219 13.5059C148.219 15.3279 149.277 16.239 151.412 16.239C153.528 16.239 154.606 15.3279 154.606 13.5059C154.606 11.6838 153.528 10.7729 151.412 10.7729ZM162 18.5669L159.206 18.5669L159.206 4.59839L162 4.59839L162 18.5669Z" fill="#FFFFFF" fill-opacity="1.000000" fill-rule="evenodd"/>
	<path id="front" d="M189.9 11.3999L189.9 19L192.7 19L192.7 11.3999L196.2 11.3999L196.2 9L192.7 9C192.7 8.47998 192.84 8.1001 193.16 7.86011C193.46 7.62012 193.94 7.5 194.6 7.5C194.86 7.5 195.14 7.52002 195.44 7.54004C195.72 7.58008 196.02 7.62012 196.3 7.69995L196.3 5.19995C196.06 5.12012 195.74 5.08008 195.38 5.04004C195 5.02002 194.64 5 194.3 5C193.54 5 192.9 5.1001 192.34 5.28003C191.78 5.47998 191.34 5.73999 190.98 6.06006C190.62 6.3999 190.34 6.80005 190.16 7.26001C189.98 7.73999 189.9 8.23999 189.9 8.80005L189.9 9L188.4 9L188.4 11.3999L189.9 11.3999ZM233.307 15.2L233.307 11.3999L231.507 11.3999L231.507 9L233.307 9L233.307 6.1001L236.107 6.1001L236.107 9L239.807 9L239.807 11.3999L236.107 11.3999L236.107 15C236.107 15.6399 236.247 16.1001 236.567 16.3401C236.867 16.5801 237.347 16.7 238.007 16.7C238.267 16.7 238.567 16.6799 238.927 16.6399C239.267 16.6001 239.587 16.54 239.907 16.4199L239.907 18.9199C239.767 18.98 239.607 19.02 239.427 19.0601C239.247 19.1001 239.067 19.1201 238.867 19.1399C238.667 19.1599 238.467 19.1799 238.267 19.1799C238.067 19.2 237.867 19.2 237.707 19.2C236.187 19.2 235.087 18.8401 234.367 18.1201C233.647 17.3999 233.307 16.4399 233.307 15.2ZM197.198 9L197.198 19L199.998 19L199.998 12.6001C200.798 12.1599 201.518 11.8201 202.158 11.6201C202.798 11.4199 203.458 11.3 204.138 11.3C204.358 11.3 204.578 11.3201 204.778 11.3601C204.978 11.3999 205.158 11.4199 205.298 11.46L205.298 9C205.058 8.93994 204.838 8.8999 204.638 8.86011C204.418 8.82007 204.198 8.80005 203.998 8.80005C203.398 8.80005 202.738 8.8999 202.058 9.1001C201.378 9.30005 200.658 9.62012 199.898 10.04L199.898 9L197.198 9ZM205.822 16.1599Q205.402 15.2 205.402 14Q205.402 12.8 205.822 11.8401C206.102 11.2 206.502 10.6599 207.022 10.2C207.542 9.76001 208.182 9.3999 208.942 9.15991C209.702 8.91992 210.542 8.80005 211.502 8.80005C212.442 8.80005 213.282 8.91992 214.042 9.15991C214.802 9.3999 215.442 9.76001 215.962 10.2C216.482 10.6599 216.902 11.2 217.182 11.8401C217.462 12.48 217.602 13.2 217.602 14C217.602 14.8 217.462 15.52 217.182 16.1599C216.902 16.8 216.482 17.3601 215.962 17.8C215.442 18.26 214.802 18.6001 214.042 18.8401C213.282 19.0801 212.442 19.2 211.502 19.2C210.542 19.2 209.702 19.0801 208.942 18.8401C208.182 18.6001 207.542 18.26 207.022 17.8C206.502 17.3601 206.102 16.8 205.822 16.1599ZM219.211 9L219.211 19L222.011 19L222.011 12.3999C222.691 12.04 223.331 11.78 223.931 11.5801C224.511 11.3999 224.971 11.3 225.331 11.3C226.051 11.3 226.611 11.52 227.011 11.9199Q227.084 11.9932 227.148 12.0735L227.148 12.0735Q227.611 12.6516 227.611 13.6001L227.611 19L230.411 19L230.411 12.6001C230.411 12.04 230.311 11.52 230.111 11.04C229.911 10.5801 229.611 10.1799 229.251 9.84009C228.871 9.52002 228.411 9.26001 227.891 9.08008C227.371 8.8999 226.791 8.80005 226.151 8.80005C225.851 8.80005 225.571 8.82007 225.291 8.86011C225.011 8.8999 224.691 8.93994 224.371 9.02002C224.051 9.1001 223.691 9.21997 223.291 9.34009C222.891 9.47998 222.431 9.63989 221.911 9.84009L221.911 9L219.211 9ZM211.502 11.3C209.362 11.3 208.302 12.2 208.302 14C208.302 15.8 209.362 16.7 211.502 16.7C213.622 16.7 214.702 15.8 214.702 14C214.702 12.2 213.622 11.3 211.502 11.3Z" fill="#F51B1B" fill-opacity="1.000000" fill-rule="evenodd"/>
	<path id="Union" d="M176.233 12L181 12C175.79 11.3999 170.744 6.6001 170 0L170 12L170 12L176.233 12Z" clip-rule="evenodd" fill="#F51B1B" fill-opacity="1.000000" fill-rule="evenodd"/>
</svg>
